HIERARCHY
ROOT SpineBase
{
  OFFSET 0.000000 0.000000 0.000000
  CHANNELS 6 Xposition Yposition Zposition Zrotation Xrotation Yrotation
  JOINT SpineMid
  {
    OFFSET 0.000000 29.005497 0.000000
    CHANNELS 3 Zrotation Xrotation Yrotation
    JOINT SpineShoulder
    {
      OFFSET -0.140054 21.588438 -0.797751
      CHANNELS 3 Zrotation Xrotation Yrotation
      JOINT Neck
      {
        OFFSET -0.065734 7.164047 -0.596725
        CHANNELS 3 Zrotation Xrotation Yrotation
        JOINT Head
        {
          OFFSET 3.901027 11.990473 -0.320103
          CHANNELS 3 Zrotation Xrotation Yrotation
          End Site
          {
            OFFSET 0 0 0
          }
        }
      }
      JOINT ShoulderLeft
      {
        OFFSET -12.883431 -2.067302 -10.078601
        CHANNELS 3 Zrotation Xrotation Yrotation
        JOINT ElbowLeft
        {
          OFFSET -4.298301 -23.366417 -3.733536
          CHANNELS 3 Zrotation Xrotation Yrotation
          JOINT WristLeft
          {
            OFFSET 3.177038 -19.204385 -3.552457
            CHANNELS 3 Zrotation Xrotation Yrotation
            JOINT HandLeft
            {
              OFFSET 1.364391 -7.105151 -0.680039
              CHANNELS 3 Zrotation Xrotation Yrotation
              JOINT HandTipLeft
              {
                OFFSET 1.507269 -6.469102 -0.173440
                CHANNELS 3 Zrotation Xrotation Yrotation
                End Site
                {
                  OFFSET 0 0 0
                }
              }
              JOINT ThumbLeft
              {
                OFFSET 3.041096 1.855924 0.398169
                CHANNELS 3 Zrotation Xrotation Yrotation
                End Site
                {
                  OFFSET 0 0 0
                }
              }
            }
          }
        }
      }
      JOINT ShoulderRight
      {
        OFFSET 14.769657 -5.379429 7.824432
        CHANNELS 3 Zrotation Xrotation Yrotation
        JOINT ElbowRight
        {
          OFFSET 0.464446 -24.583261 2.139618
          CHANNELS 3 Zrotation Xrotation Yrotation
          JOINT WristRight
          {
            OFFSET 1.260317 -20.874168 -2.995824
            CHANNELS 3 Zrotation Xrotation Yrotation
            JOINT HandRight
            {
              OFFSET -1.556446 -4.346168 -2.241423
              CHANNELS 3 Zrotation Xrotation Yrotation
              JOINT HandTipRight
              {
                OFFSET 0.450867 -5.311628 -0.788833
                CHANNELS 3 Zrotation Xrotation Yrotation
                End Site
                {
                  OFFSET 0 0 0
                }
              }
              JOINT ThumbRight
              {
                OFFSET 2.476196 -0.329762 -1.185801
                CHANNELS 3 Zrotation Xrotation Yrotation
                End Site
                {
                  OFFSET 0 0 0
                }
              }
            }
          }
        }
      }
    }
  }
  JOINT HipLeft
  {
    OFFSET -5.890544 1.526038 -6.334581
    CHANNELS 3 Zrotation Xrotation Yrotation
    JOINT KneeLeft
    {
      OFFSET -10.671636 -27.636394 0.664623
      CHANNELS 3 Zrotation Xrotation Yrotation
      JOINT AnkleLeft
      {
        OFFSET -5.193419 -31.176383 5.640346
        CHANNELS 3 Zrotation Xrotation Yrotation
        JOINT FootLeft
        {
          OFFSET 4.756861 -3.486690 -10.677781
          CHANNELS 3 Zrotation Xrotation Yrotation
          End Site
          {
            OFFSET 0 0 0
          }
        }
      }
    }
  }
  JOINT HipRight
  {
    OFFSET 5.443507 0.040449 0.137359
    CHANNELS 3 Zrotation Xrotation Yrotation
    JOINT KneeRight
    {
      OFFSET -2.476902 -29.430777 6.704324
      CHANNELS 3 Zrotation Xrotation Yrotation
      JOINT AnkleRight
      {
        OFFSET -3.446649 -31.272011 6.230241
        CHANNELS 3 Zrotation Xrotation Yrotation
        JOINT FootRight
        {
          OFFSET 3.130225 -6.873926 -2.992869
          CHANNELS 3 Zrotation Xrotation Yrotation
          End Site
          {
            OFFSET 0 0 0
          }
        }
      }
    }
  }
}
MOTION
Frames: 9
Frame Time: 0.033333
48.683373 54.811218 357.935058 -10.831026 -17.761467 15.192881 -0.610033 1.053598 -17.201997 -1.083808 1.946145 -0.268654 10.523742 24.110282 -2.786792 0.000000 0.000000 0.000000 55.181094 28.250065 -27.151792 0.087596 -28.311547 11.057248 32.755923 -14.560987 2.216795 -103.302956 51.268256 55.012568 0.000000 0.000000 0.000000 0.000000 0.000000 0.000000 5.886342 19.795617 1.033970 -91.280384 13.953822 32.258252 21.436091 -72.538623 -12.741348 -26.310468 50.936332 21.462317 0.000000 0.000000 0.000000 0.000000 0.000000 0.000000 -42.158697 41.064098 1.983093 23.192790 -33.838604 -1.636734 18.792629 -8.884333 57.273001 0.000000 0.000000 0.000000 14.696207 16.643783 -19.148328 4.585344 6.600110 0.108826 16.943543 8.631693 -0.532715 0.000000 0.000000 0.000000
49.709822 54.159677 358.607075 -9.186651 -18.855162 16.681833 -0.578485 0.563597 -18.536284 -1.072782 1.772393 -0.224131 8.284471 24.356271 -2.188018 0.000000 0.000000 0.000000 62.884345 29.037155 -34.450602 -7.463201 -32.261931 12.202439 30.593349 -10.310035 0.464888 -77.471421 29.562894 28.597888 0.000000 0.000000 0.000000 0.000000 0.000000 0.000000 4.041796 21.485955 1.182677 -91.539437 13.525426 31.892809 12.551445 -72.426982 -19.238764 -24.744649 53.553971 22.671171 0.000000 0.000000 0.000000 0.000000 0.000000 0.000000 -45.821382 41.900273 3.470530 24.480808 -33.242876 -1.873007 19.816901 -14.657875 66.940827 0.000000 0.000000 0.000000 11.652140 19.424247 -20.486812 7.489682 6.087856 0.929951 17.371217 12.267242 -0.032159 0.000000 0.000000 0.000000
50.526047 54.019010 359.179156 -9.209646 -17.984221 16.839339 -0.501054 0.415897 -18.652622 -0.461848 1.212499 -0.334923 7.485025 22.408393 -1.565099 0.000000 0.000000 0.000000 67.980141 26.587751 -37.108761 -14.681888 -33.113684 11.530690 34.567144 -13.330979 1.236299 -102.580989 57.946590 57.059151 0.000000 0.000000 0.000000 0.000000 0.000000 0.000000 3.345801 21.292586 1.222870 -90.439850 15.242713 33.275709 10.112818 -68.830071 -18.338705 -24.961364 43.155742 15.100034 0.000000 0.000000 0.000000 0.000000 0.000000 0.000000 -48.184856 41.336078 3.990951 24.562666 -33.271778 -2.741389 22.077679 -17.202309 66.813094 0.000000 0.000000 0.000000 11.182285 19.901722 -20.628286 7.109528 4.688972 1.145652 27.294733 18.282243 -2.667082 0.000000 0.000000 0.000000
50.097827 53.756523 358.865024 -10.084330 -17.270807 18.219580 -0.368673 -0.235196 -20.233230 0.674190 0.567812 -0.505883 6.857383 22.112454 -1.287302 0.000000 0.000000 0.000000 71.673220 24.801782 -39.401006 -21.670541 -33.899782 10.345389 38.701137 -18.392181 2.751665 15.108200 47.267415 -23.371402 0.000000 0.000000 0.000000 0.000000 0.000000 0.000000 2.699906 21.834984 1.288936 -90.432648 15.242998 33.268545 13.679575 -62.934658 -12.933739 -27.068209 37.656351 13.216438 0.000000 0.000000 0.000000 0.000000 0.000000 0.000000 -47.618241 41.628688 2.413753 23.933133 -32.839837 -3.653306 23.309608 -15.737411 63.232142 0.000000 0.000000 0.000000 13.611033 16.368625 -21.928660 3.980518 6.281914 0.157188 42.214174 20.917968 -8.452661 0.000000 0.000000 0.000000
50.204725 52.862776 359.092010 -9.512807 -17.358192 17.039521 -0.515905 -0.237316 -18.938104 0.461535 0.263234 -0.500534 6.222018 22.287568 -1.071074 0.000000 0.000000 0.000000 81.204601 23.968201 -46.829318 -30.332229 -39.006942 9.994013 40.460499 -29.331454 7.776642 4.466398 18.251211 -5.830938 0.000000 0.000000 0.000000 0.000000 0.000000 0.000000 2.498362 22.253586 1.322018 -90.426089 15.243112 33.261184 11.648581 -59.197001 -12.279369 -26.516825 32.049399 7.466608 0.000000 0.000000 0.000000 0.000000 0.000000 0.000000 -52.699501 40.104421 5.668308 25.646974 -31.610227 -3.908416 24.426207 -15.073099 65.942335 0.000000 0.000000 0.000000 12.815325 16.926192 -20.623095 2.338972 6.301215 -0.131632 56.439427 24.173503 -14.160747 0.000000 0.000000 0.000000
51.122929 51.933989 359.276061 -8.112306 -17.326413 16.043313 -0.738696 -0.094378 -17.632274 0.062109 0.116002 -0.434486 5.721150 22.530924 -1.154506 0.000000 0.000000 0.000000 87.624791 24.307937 -53.309717 -35.628560 -46.257248 9.589954 44.535418 -47.413163 17.140838 -10.975576 26.201638 2.088777 0.000000 0.000000 0.000000 0.000000 0.000000 0.000000 1.807752 22.246855 1.373353 -90.411130 15.241450 33.250159 12.132210 -56.747366 -10.829987 -28.911201 32.387648 10.207986 0.000000 0.000000 0.000000 0.000000 0.000000 0.000000 -58.374290 38.277484 8.728573 28.471823 -30.765802 -3.649937 24.647025 -15.595806 66.878957 0.000000 0.000000 0.000000 10.148350 18.030533 -19.221939 0.757617 6.088515 -0.295927 68.239948 24.998560 -18.548925 0.000000 0.000000 0.000000
52.307730 51.278230 359.285064 -6.790526 -17.108100 14.537177 -0.751667 0.091520 -15.837551 -0.248351 0.063616 -0.361426 5.472366 23.012470 -1.557501 0.000000 0.000000 0.000000 89.673445 26.849937 -57.744863 -34.380889 -53.548634 10.885512 68.240928 -72.936026 51.138583 5.247788 50.709151 -14.795964 0.000000 0.000000 0.000000 0.000000 0.000000 0.000000 0.918099 21.846763 1.415900 -90.388940 15.238688 33.235970 15.761024 -55.413875 -8.368848 -32.230846 31.768838 12.389274 0.000000 0.000000 0.000000 0.000000 0.000000 0.000000 -62.786827 35.702970 10.987771 31.505557 -29.611299 -2.993482 24.037279 -17.416459 66.092118 0.000000 0.000000 0.000000 6.128988 19.132263 -17.126152 1.033503 6.000196 -0.059368 74.383986 22.493651 -20.266052 0.000000 0.000000 0.000000
53.881525 50.518304 359.267964 -5.255177 -16.713728 11.298749 -0.739764 0.256131 -12.277559 -0.613906 0.172108 -0.264942 5.042974 23.276770 -1.994646 0.000000 0.000000 0.000000 92.460759 28.770551 -62.580765 -29.334976 -64.130870 15.944436 168.314162 -66.911618 165.720682 76.021392 75.878684 -84.960341 0.000000 0.000000 0.000000 0.000000 0.000000 0.000000 -0.158647 21.097129 1.439965 -90.363060 15.235355 33.221112 22.016850 -55.771999 -5.400144 -33.063244 31.388727 12.821545 0.000000 0.000000 0.000000 0.000000 0.000000 0.000000 -65.855424 30.457162 12.598680 33.435979 -27.361445 -2.801961 23.304969 -18.526853 71.902469 0.000000 0.000000 0.000000 -0.010130 20.460115 -12.943614 2.954741 5.867319 0.565767 76.489674 20.382365 -20.080678 0.000000 0.000000 0.000000
55.334709 50.039039 359.104142 -4.162764 -16.215986 8.072925 -0.554894 0.219976 -8.853916 -0.547276 0.189873 -0.213714 4.884160 24.085345 -2.717886 0.000000 0.000000 0.000000 89.056729 31.894328 -62.494954 -19.795512 -68.687487 22.329381 -175.477050 -53.464957 -149.817235 114.894609 46.700344 -113.739779 0.000000 0.000000 0.000000 0.000000 0.000000 0.000000 -1.477485 20.518513 1.477259 -90.340153 15.231952 33.208321 28.259171 -52.817389 -1.570924 -34.358754 30.044197 13.089883 0.000000 0.000000 0.000000 0.000000 0.000000 0.000000 -67.104097 26.027198 13.407565 35.443110 -25.009813 -1.979738 20.644180 -16.678018 72.749070 0.000000 0.000000 0.000000 -6.135754 20.882707 -8.801323 6.277088 5.725341 1.475858 71.510548 19.542026 -17.474078 0.000000 0.000000 0.000000
